G75*
%MOIN*%
%OFA0B0*%
%FSLAX25Y25*%
%IPPOS*%
%LPD*%
%AMOC8*
5,1,8,0,0,1.08239X$1,22.5*
%
%ADD10C,0.00000*%
%ADD11C,0.00300*%
%ADD12C,0.00600*%
D10*
X0011500Y0008500D02*
X0011500Y0049461D01*
X0404201Y0049461D01*
X0404201Y0008500D01*
X0011500Y0008500D01*
X0383201Y0028500D02*
X0383203Y0028658D01*
X0383209Y0028816D01*
X0383219Y0028974D01*
X0383233Y0029132D01*
X0383251Y0029289D01*
X0383272Y0029446D01*
X0383298Y0029602D01*
X0383328Y0029758D01*
X0383361Y0029913D01*
X0383399Y0030066D01*
X0383440Y0030219D01*
X0383485Y0030371D01*
X0383534Y0030522D01*
X0383587Y0030671D01*
X0383643Y0030819D01*
X0383703Y0030965D01*
X0383767Y0031110D01*
X0383835Y0031253D01*
X0383906Y0031395D01*
X0383980Y0031535D01*
X0384058Y0031672D01*
X0384140Y0031808D01*
X0384224Y0031942D01*
X0384313Y0032073D01*
X0384404Y0032202D01*
X0384499Y0032329D01*
X0384596Y0032454D01*
X0384697Y0032576D01*
X0384801Y0032695D01*
X0384908Y0032812D01*
X0385018Y0032926D01*
X0385131Y0033037D01*
X0385246Y0033146D01*
X0385364Y0033251D01*
X0385485Y0033353D01*
X0385608Y0033453D01*
X0385734Y0033549D01*
X0385862Y0033642D01*
X0385992Y0033732D01*
X0386125Y0033818D01*
X0386260Y0033902D01*
X0386396Y0033981D01*
X0386535Y0034058D01*
X0386676Y0034130D01*
X0386818Y0034200D01*
X0386962Y0034265D01*
X0387108Y0034327D01*
X0387255Y0034385D01*
X0387404Y0034440D01*
X0387554Y0034491D01*
X0387705Y0034538D01*
X0387857Y0034581D01*
X0388010Y0034620D01*
X0388165Y0034656D01*
X0388320Y0034687D01*
X0388476Y0034715D01*
X0388632Y0034739D01*
X0388789Y0034759D01*
X0388947Y0034775D01*
X0389104Y0034787D01*
X0389263Y0034795D01*
X0389421Y0034799D01*
X0389579Y0034799D01*
X0389737Y0034795D01*
X0389896Y0034787D01*
X0390053Y0034775D01*
X0390211Y0034759D01*
X0390368Y0034739D01*
X0390524Y0034715D01*
X0390680Y0034687D01*
X0390835Y0034656D01*
X0390990Y0034620D01*
X0391143Y0034581D01*
X0391295Y0034538D01*
X0391446Y0034491D01*
X0391596Y0034440D01*
X0391745Y0034385D01*
X0391892Y0034327D01*
X0392038Y0034265D01*
X0392182Y0034200D01*
X0392324Y0034130D01*
X0392465Y0034058D01*
X0392604Y0033981D01*
X0392740Y0033902D01*
X0392875Y0033818D01*
X0393008Y0033732D01*
X0393138Y0033642D01*
X0393266Y0033549D01*
X0393392Y0033453D01*
X0393515Y0033353D01*
X0393636Y0033251D01*
X0393754Y0033146D01*
X0393869Y0033037D01*
X0393982Y0032926D01*
X0394092Y0032812D01*
X0394199Y0032695D01*
X0394303Y0032576D01*
X0394404Y0032454D01*
X0394501Y0032329D01*
X0394596Y0032202D01*
X0394687Y0032073D01*
X0394776Y0031942D01*
X0394860Y0031808D01*
X0394942Y0031672D01*
X0395020Y0031535D01*
X0395094Y0031395D01*
X0395165Y0031253D01*
X0395233Y0031110D01*
X0395297Y0030965D01*
X0395357Y0030819D01*
X0395413Y0030671D01*
X0395466Y0030522D01*
X0395515Y0030371D01*
X0395560Y0030219D01*
X0395601Y0030066D01*
X0395639Y0029913D01*
X0395672Y0029758D01*
X0395702Y0029602D01*
X0395728Y0029446D01*
X0395749Y0029289D01*
X0395767Y0029132D01*
X0395781Y0028974D01*
X0395791Y0028816D01*
X0395797Y0028658D01*
X0395799Y0028500D01*
X0395797Y0028342D01*
X0395791Y0028184D01*
X0395781Y0028026D01*
X0395767Y0027868D01*
X0395749Y0027711D01*
X0395728Y0027554D01*
X0395702Y0027398D01*
X0395672Y0027242D01*
X0395639Y0027087D01*
X0395601Y0026934D01*
X0395560Y0026781D01*
X0395515Y0026629D01*
X0395466Y0026478D01*
X0395413Y0026329D01*
X0395357Y0026181D01*
X0395297Y0026035D01*
X0395233Y0025890D01*
X0395165Y0025747D01*
X0395094Y0025605D01*
X0395020Y0025465D01*
X0394942Y0025328D01*
X0394860Y0025192D01*
X0394776Y0025058D01*
X0394687Y0024927D01*
X0394596Y0024798D01*
X0394501Y0024671D01*
X0394404Y0024546D01*
X0394303Y0024424D01*
X0394199Y0024305D01*
X0394092Y0024188D01*
X0393982Y0024074D01*
X0393869Y0023963D01*
X0393754Y0023854D01*
X0393636Y0023749D01*
X0393515Y0023647D01*
X0393392Y0023547D01*
X0393266Y0023451D01*
X0393138Y0023358D01*
X0393008Y0023268D01*
X0392875Y0023182D01*
X0392740Y0023098D01*
X0392604Y0023019D01*
X0392465Y0022942D01*
X0392324Y0022870D01*
X0392182Y0022800D01*
X0392038Y0022735D01*
X0391892Y0022673D01*
X0391745Y0022615D01*
X0391596Y0022560D01*
X0391446Y0022509D01*
X0391295Y0022462D01*
X0391143Y0022419D01*
X0390990Y0022380D01*
X0390835Y0022344D01*
X0390680Y0022313D01*
X0390524Y0022285D01*
X0390368Y0022261D01*
X0390211Y0022241D01*
X0390053Y0022225D01*
X0389896Y0022213D01*
X0389737Y0022205D01*
X0389579Y0022201D01*
X0389421Y0022201D01*
X0389263Y0022205D01*
X0389104Y0022213D01*
X0388947Y0022225D01*
X0388789Y0022241D01*
X0388632Y0022261D01*
X0388476Y0022285D01*
X0388320Y0022313D01*
X0388165Y0022344D01*
X0388010Y0022380D01*
X0387857Y0022419D01*
X0387705Y0022462D01*
X0387554Y0022509D01*
X0387404Y0022560D01*
X0387255Y0022615D01*
X0387108Y0022673D01*
X0386962Y0022735D01*
X0386818Y0022800D01*
X0386676Y0022870D01*
X0386535Y0022942D01*
X0386396Y0023019D01*
X0386260Y0023098D01*
X0386125Y0023182D01*
X0385992Y0023268D01*
X0385862Y0023358D01*
X0385734Y0023451D01*
X0385608Y0023547D01*
X0385485Y0023647D01*
X0385364Y0023749D01*
X0385246Y0023854D01*
X0385131Y0023963D01*
X0385018Y0024074D01*
X0384908Y0024188D01*
X0384801Y0024305D01*
X0384697Y0024424D01*
X0384596Y0024546D01*
X0384499Y0024671D01*
X0384404Y0024798D01*
X0384313Y0024927D01*
X0384224Y0025058D01*
X0384140Y0025192D01*
X0384058Y0025328D01*
X0383980Y0025465D01*
X0383906Y0025605D01*
X0383835Y0025747D01*
X0383767Y0025890D01*
X0383703Y0026035D01*
X0383643Y0026181D01*
X0383587Y0026329D01*
X0383534Y0026478D01*
X0383485Y0026629D01*
X0383440Y0026781D01*
X0383399Y0026934D01*
X0383361Y0027087D01*
X0383328Y0027242D01*
X0383298Y0027398D01*
X0383272Y0027554D01*
X0383251Y0027711D01*
X0383233Y0027868D01*
X0383219Y0028026D01*
X0383209Y0028184D01*
X0383203Y0028342D01*
X0383201Y0028500D01*
D11*
X0374485Y0034884D02*
X0373251Y0033650D01*
X0372016Y0034884D01*
X0372016Y0037353D01*
X0370802Y0037353D02*
X0368333Y0037353D01*
X0368333Y0035502D01*
X0369568Y0036119D01*
X0370185Y0036119D01*
X0370802Y0035502D01*
X0370802Y0034267D01*
X0370185Y0033650D01*
X0368950Y0033650D01*
X0368333Y0034267D01*
X0365884Y0034267D02*
X0365884Y0036736D01*
X0364650Y0035502D02*
X0367119Y0035502D01*
X0374485Y0034884D02*
X0374485Y0037353D01*
X0324851Y0040033D02*
X0324234Y0039416D01*
X0323617Y0039416D01*
X0324851Y0040033D02*
X0324851Y0043119D01*
X0322999Y0043119D01*
X0322382Y0042502D01*
X0322382Y0041267D01*
X0322999Y0040650D01*
X0324851Y0040650D01*
X0319313Y0040650D02*
X0319313Y0043119D01*
X0320547Y0043119D02*
X0321164Y0043119D01*
X0320547Y0043119D02*
X0319313Y0041884D01*
X0318098Y0041267D02*
X0318098Y0042502D01*
X0317481Y0043119D01*
X0316247Y0043119D01*
X0315630Y0042502D01*
X0315630Y0041267D01*
X0316247Y0040650D01*
X0317481Y0040650D01*
X0318098Y0041267D01*
X0314405Y0041267D02*
X0314405Y0040650D01*
X0313788Y0040650D01*
X0313788Y0041267D01*
X0314405Y0041267D01*
X0312574Y0041267D02*
X0311957Y0040650D01*
X0310105Y0040650D01*
X0308884Y0040650D02*
X0307650Y0040650D01*
X0308267Y0040650D02*
X0308267Y0043119D01*
X0307650Y0043119D01*
X0306432Y0043119D02*
X0305815Y0043119D01*
X0304580Y0041884D01*
X0301514Y0040650D02*
X0300897Y0041267D01*
X0300897Y0043119D01*
X0299679Y0043119D02*
X0299062Y0043119D01*
X0297828Y0041884D01*
X0296607Y0040650D02*
X0295990Y0041267D01*
X0295990Y0043736D01*
X0296607Y0043119D02*
X0295372Y0043119D01*
X0297828Y0043119D02*
X0297828Y0040650D01*
X0294148Y0040650D02*
X0294148Y0041267D01*
X0293531Y0041267D01*
X0293531Y0040650D01*
X0294148Y0040650D01*
X0292316Y0041267D02*
X0291699Y0041884D01*
X0290465Y0041884D01*
X0289848Y0042502D01*
X0290465Y0043119D01*
X0292316Y0043119D01*
X0288627Y0043119D02*
X0287392Y0043119D01*
X0288009Y0043736D02*
X0288009Y0041267D01*
X0288627Y0040650D01*
X0289848Y0040650D02*
X0291699Y0040650D01*
X0292316Y0041267D01*
X0286178Y0040650D02*
X0284326Y0040650D01*
X0283709Y0041267D01*
X0283709Y0042502D01*
X0284326Y0043119D01*
X0286178Y0043119D01*
X0282495Y0042502D02*
X0282495Y0041884D01*
X0280026Y0041884D01*
X0280026Y0041267D02*
X0280026Y0042502D01*
X0280643Y0043119D01*
X0281878Y0043119D01*
X0282495Y0042502D01*
X0278805Y0043119D02*
X0278805Y0040033D01*
X0278188Y0039416D01*
X0277571Y0039416D01*
X0275739Y0040650D02*
X0276356Y0041267D01*
X0276356Y0042502D01*
X0275739Y0043119D01*
X0274505Y0043119D01*
X0273887Y0042502D01*
X0273887Y0041267D01*
X0274505Y0040650D01*
X0275739Y0040650D01*
X0280026Y0041267D02*
X0280643Y0040650D01*
X0281878Y0040650D01*
X0272053Y0043119D02*
X0270818Y0041884D01*
X0269604Y0041267D02*
X0268987Y0040650D01*
X0267135Y0040650D01*
X0269604Y0041267D02*
X0269604Y0042502D01*
X0268987Y0043119D01*
X0267135Y0043119D01*
X0267135Y0039416D01*
X0263452Y0040650D02*
X0265921Y0044353D01*
X0262237Y0044353D02*
X0259769Y0040650D01*
X0258544Y0040650D02*
X0257927Y0040650D01*
X0257927Y0041267D01*
X0258544Y0041267D01*
X0258544Y0040650D01*
X0256713Y0041267D02*
X0256096Y0040650D01*
X0254244Y0040650D01*
X0253023Y0040650D02*
X0252406Y0041267D01*
X0252406Y0043736D01*
X0251789Y0043119D02*
X0253023Y0043119D01*
X0254244Y0043119D02*
X0256096Y0043119D01*
X0256713Y0042502D01*
X0256713Y0041267D01*
X0257927Y0042502D02*
X0257927Y0043119D01*
X0258544Y0043119D01*
X0258544Y0042502D01*
X0257927Y0042502D01*
X0254244Y0043119D02*
X0254244Y0039416D01*
X0250568Y0040650D02*
X0249950Y0041267D01*
X0249950Y0043736D01*
X0249333Y0043119D02*
X0250568Y0043119D01*
X0248119Y0042502D02*
X0248119Y0040650D01*
X0245650Y0040650D02*
X0245650Y0044353D01*
X0246267Y0043119D02*
X0247502Y0043119D01*
X0248119Y0042502D01*
X0246267Y0043119D02*
X0245650Y0042502D01*
X0270818Y0043119D02*
X0270818Y0040650D01*
X0272053Y0043119D02*
X0272670Y0043119D01*
X0278805Y0044353D02*
X0278805Y0044970D01*
X0303366Y0043119D02*
X0303366Y0040650D01*
X0301514Y0040650D01*
X0304580Y0040650D02*
X0304580Y0043119D01*
X0308267Y0044353D02*
X0308267Y0044970D01*
X0310105Y0043119D02*
X0311957Y0043119D01*
X0312574Y0042502D01*
X0312574Y0041267D01*
X0310105Y0039416D02*
X0310105Y0043119D01*
X0199099Y0040650D02*
X0196630Y0040650D01*
X0195405Y0040650D02*
X0194788Y0040650D01*
X0194788Y0041267D01*
X0195405Y0041267D01*
X0195405Y0040650D01*
X0193574Y0040650D02*
X0191105Y0040650D01*
X0192339Y0040650D02*
X0192339Y0044353D01*
X0191105Y0043119D01*
X0189891Y0043119D02*
X0188656Y0040650D01*
X0187422Y0043119D01*
X0182521Y0043119D02*
X0181904Y0043119D01*
X0180669Y0041884D01*
X0179455Y0041884D02*
X0176986Y0041884D01*
X0176986Y0041267D02*
X0176986Y0042502D01*
X0177603Y0043119D01*
X0178838Y0043119D01*
X0179455Y0042502D01*
X0179455Y0041884D01*
X0177603Y0040650D02*
X0176986Y0041267D01*
X0177603Y0040650D02*
X0178838Y0040650D01*
X0180669Y0040650D02*
X0180669Y0043119D01*
X0175765Y0043119D02*
X0174531Y0043119D01*
X0175148Y0043736D02*
X0175148Y0041267D01*
X0175765Y0040650D01*
X0173317Y0041267D02*
X0172699Y0040650D01*
X0170848Y0040650D01*
X0169633Y0040650D02*
X0167782Y0040650D01*
X0167165Y0041267D01*
X0167782Y0041884D01*
X0169633Y0041884D01*
X0169633Y0042502D02*
X0169633Y0040650D01*
X0165950Y0040650D02*
X0164099Y0040650D01*
X0163481Y0041267D01*
X0163481Y0042502D01*
X0164099Y0043119D01*
X0165950Y0043119D01*
X0167782Y0043119D02*
X0169016Y0043119D01*
X0169633Y0042502D01*
X0170848Y0043119D02*
X0172699Y0043119D01*
X0173317Y0042502D01*
X0173317Y0041267D01*
X0165950Y0040650D02*
X0165950Y0044353D01*
X0162267Y0043119D02*
X0162267Y0040650D01*
X0159798Y0040650D02*
X0159798Y0043119D01*
X0161033Y0044353D01*
X0162267Y0043119D01*
X0162267Y0042502D02*
X0159798Y0042502D01*
X0154901Y0043736D02*
X0152432Y0041267D01*
X0152432Y0040650D01*
X0151218Y0040650D02*
X0151218Y0044353D01*
X0152432Y0044353D02*
X0154901Y0044353D01*
X0154901Y0043736D01*
X0151218Y0040650D02*
X0148749Y0044353D01*
X0148749Y0040650D01*
X0147534Y0041267D02*
X0146917Y0040650D01*
X0145683Y0040650D01*
X0145066Y0041267D01*
X0145066Y0043736D01*
X0145683Y0044353D01*
X0146917Y0044353D01*
X0147534Y0043736D01*
X0140168Y0043736D02*
X0140168Y0043119D01*
X0137699Y0040650D01*
X0140168Y0040650D01*
X0136485Y0041267D02*
X0135868Y0040650D01*
X0134633Y0040650D01*
X0134016Y0041267D01*
X0132802Y0042502D02*
X0132185Y0041884D01*
X0130333Y0041884D01*
X0129119Y0041267D02*
X0128502Y0040650D01*
X0127267Y0040650D01*
X0126650Y0041267D01*
X0126650Y0043736D01*
X0127267Y0044353D01*
X0128502Y0044353D01*
X0129119Y0043736D01*
X0130333Y0044353D02*
X0132185Y0044353D01*
X0132802Y0043736D01*
X0132802Y0042502D01*
X0134016Y0043119D02*
X0134633Y0042502D01*
X0135868Y0042502D01*
X0136485Y0041884D01*
X0136485Y0041267D01*
X0130333Y0040650D02*
X0130333Y0044353D01*
X0134016Y0043736D02*
X0134016Y0043119D01*
X0134016Y0043736D02*
X0134633Y0044353D01*
X0135868Y0044353D01*
X0136485Y0043736D01*
X0137699Y0043736D02*
X0138317Y0044353D01*
X0139551Y0044353D01*
X0140168Y0043736D01*
X0170848Y0043119D02*
X0170848Y0039416D01*
X0197864Y0040650D02*
X0197864Y0044353D01*
X0196630Y0043119D01*
X0081726Y0043119D02*
X0080491Y0043119D01*
X0081108Y0043736D02*
X0081108Y0041267D01*
X0081726Y0040650D01*
X0079277Y0040650D02*
X0079277Y0043119D01*
X0076808Y0043119D02*
X0076808Y0041267D01*
X0077425Y0040650D01*
X0079277Y0040650D01*
X0075594Y0041267D02*
X0075594Y0043736D01*
X0074976Y0044353D01*
X0073742Y0044353D01*
X0073125Y0043736D01*
X0073125Y0041267D01*
X0073742Y0040650D01*
X0074976Y0040650D01*
X0075594Y0041267D01*
X0068227Y0044353D02*
X0065759Y0040650D01*
X0060861Y0041267D02*
X0060244Y0040650D01*
X0058392Y0040650D01*
X0057178Y0041267D02*
X0057178Y0042502D01*
X0056561Y0043119D01*
X0055326Y0043119D01*
X0054709Y0042502D01*
X0054709Y0041267D01*
X0055326Y0040650D01*
X0056561Y0040650D01*
X0057178Y0041267D01*
X0060861Y0041267D02*
X0060861Y0042502D01*
X0060244Y0043119D01*
X0058392Y0043119D01*
X0058392Y0039416D01*
X0052260Y0040650D02*
X0052260Y0044353D01*
X0051026Y0044353D02*
X0053495Y0044353D01*
X0046128Y0042502D02*
X0045511Y0043119D01*
X0044277Y0043119D01*
X0043660Y0042502D01*
X0043660Y0041267D01*
X0044277Y0040650D01*
X0045511Y0040650D01*
X0042445Y0040650D02*
X0040594Y0040650D01*
X0039977Y0041267D01*
X0039977Y0042502D01*
X0040594Y0043119D01*
X0042445Y0043119D01*
X0046128Y0042502D02*
X0046128Y0041884D01*
X0043660Y0041884D01*
X0042445Y0040650D02*
X0042445Y0044353D01*
X0038138Y0044353D02*
X0038138Y0044970D01*
X0036307Y0043736D02*
X0035690Y0044353D01*
X0034455Y0044353D01*
X0033838Y0043736D01*
X0033838Y0043119D01*
X0034455Y0042502D01*
X0035690Y0042502D01*
X0036307Y0041884D01*
X0036307Y0041267D01*
X0035690Y0040650D01*
X0034455Y0040650D01*
X0033838Y0041267D01*
X0037521Y0040650D02*
X0038756Y0040650D01*
X0038138Y0040650D02*
X0038138Y0043119D01*
X0037521Y0043119D01*
X0028940Y0043119D02*
X0027089Y0043119D01*
X0026472Y0042502D01*
X0027089Y0041884D01*
X0028323Y0041884D01*
X0028940Y0041267D01*
X0028323Y0040650D01*
X0026472Y0040650D01*
X0025251Y0040650D02*
X0024016Y0040650D01*
X0024633Y0040650D02*
X0024633Y0043119D01*
X0024016Y0043119D01*
X0022802Y0042502D02*
X0022185Y0043119D01*
X0020950Y0043119D01*
X0020333Y0042502D01*
X0022802Y0042502D02*
X0022802Y0040650D01*
X0020333Y0040650D02*
X0020333Y0044353D01*
X0019119Y0044353D02*
X0016650Y0044353D01*
X0017884Y0044353D02*
X0017884Y0040650D01*
X0024633Y0044353D02*
X0024633Y0044970D01*
X0364650Y0020736D02*
X0364650Y0018267D01*
X0365267Y0017650D01*
X0366502Y0017650D01*
X0367119Y0018267D01*
X0367119Y0019502D01*
X0365884Y0019502D01*
X0364650Y0020736D02*
X0365267Y0021353D01*
X0366502Y0021353D01*
X0367119Y0020736D01*
X0368333Y0021353D02*
X0370802Y0017650D01*
X0370802Y0021353D01*
X0372016Y0021353D02*
X0373868Y0021353D01*
X0374485Y0020736D01*
X0374485Y0018267D01*
X0373868Y0017650D01*
X0372016Y0017650D01*
X0372016Y0021353D01*
X0368333Y0021353D02*
X0368333Y0017650D01*
D12*
X0336500Y0019000D02*
X0336500Y0034000D01*
X0334000Y0036500D01*
X0329000Y0036500D01*
X0326500Y0034000D01*
X0326500Y0019000D01*
X0329000Y0016500D01*
X0334000Y0016500D01*
X0336500Y0019000D01*
X0326500Y0019000D02*
X0324000Y0016500D01*
X0319000Y0016500D01*
X0316500Y0019000D01*
X0316500Y0034000D01*
X0319000Y0036500D01*
X0324000Y0036500D01*
X0326500Y0034000D01*
X0316500Y0034000D02*
X0316500Y0019000D01*
X0314000Y0016500D01*
X0309000Y0016500D01*
X0306500Y0019000D01*
X0306500Y0034000D01*
X0309000Y0036500D01*
X0314000Y0036500D01*
X0316500Y0034000D01*
X0306500Y0034000D02*
X0304000Y0036500D01*
X0299000Y0036500D01*
X0296500Y0034000D01*
X0296500Y0019000D01*
X0299000Y0016500D01*
X0304000Y0016500D01*
X0306500Y0019000D01*
X0296500Y0019000D02*
X0294000Y0016500D01*
X0289000Y0016500D01*
X0286500Y0019000D01*
X0286500Y0034000D01*
X0289000Y0036500D01*
X0294000Y0036500D01*
X0296500Y0034000D01*
X0286500Y0034000D02*
X0284000Y0036500D01*
X0279000Y0036500D01*
X0276500Y0034000D01*
X0276500Y0019000D01*
X0279000Y0016500D01*
X0284000Y0016500D01*
X0286500Y0019000D01*
X0276500Y0019000D02*
X0274000Y0016500D01*
X0269000Y0016500D01*
X0266500Y0019000D01*
X0266500Y0034000D01*
X0269000Y0036500D01*
X0274000Y0036500D01*
X0276500Y0034000D01*
X0266500Y0034000D02*
X0264000Y0036500D01*
X0259000Y0036500D01*
X0256500Y0034000D01*
X0256500Y0019000D01*
X0259000Y0016500D01*
X0264000Y0016500D01*
X0266500Y0019000D01*
X0256500Y0019000D02*
X0254000Y0016500D01*
X0249000Y0016500D01*
X0246500Y0019000D01*
X0246500Y0034000D01*
X0249000Y0036500D01*
X0254000Y0036500D01*
X0256500Y0034000D01*
X0246500Y0034000D02*
X0244000Y0036500D01*
X0239000Y0036500D01*
X0236500Y0034000D01*
X0236500Y0019000D01*
X0239000Y0016500D01*
X0244000Y0016500D01*
X0246500Y0019000D01*
X0236500Y0019000D02*
X0234000Y0016500D01*
X0229000Y0016500D01*
X0226500Y0019000D01*
X0226500Y0034000D01*
X0229000Y0036500D01*
X0234000Y0036500D01*
X0236500Y0034000D01*
X0226500Y0034000D02*
X0224000Y0036500D01*
X0219000Y0036500D01*
X0216500Y0034000D01*
X0216500Y0019000D01*
X0219000Y0016500D01*
X0224000Y0016500D01*
X0226500Y0019000D01*
X0216500Y0019000D02*
X0214000Y0016500D01*
X0209000Y0016500D01*
X0206500Y0019000D01*
X0206500Y0034000D01*
X0209000Y0036500D01*
X0214000Y0036500D01*
X0216500Y0034000D01*
X0206500Y0034000D02*
X0204000Y0036500D01*
X0199000Y0036500D01*
X0196500Y0034000D01*
X0196500Y0019000D01*
X0194000Y0016500D01*
X0189000Y0016500D01*
X0186500Y0019000D01*
X0186500Y0034000D01*
X0189000Y0036500D01*
X0194000Y0036500D01*
X0196500Y0034000D01*
X0186500Y0034000D02*
X0184000Y0036500D01*
X0179000Y0036500D01*
X0176500Y0034000D01*
X0176500Y0019000D01*
X0174000Y0016500D01*
X0169000Y0016500D01*
X0166500Y0019000D01*
X0166500Y0034000D01*
X0169000Y0036500D01*
X0174000Y0036500D01*
X0176500Y0034000D01*
X0166500Y0034000D02*
X0164000Y0036500D01*
X0159000Y0036500D01*
X0156500Y0034000D01*
X0156500Y0019000D01*
X0154000Y0016500D01*
X0149000Y0016500D01*
X0146500Y0019000D01*
X0146500Y0034000D01*
X0149000Y0036500D01*
X0154000Y0036500D01*
X0156500Y0034000D01*
X0146500Y0034000D02*
X0144000Y0036500D01*
X0139000Y0036500D01*
X0136500Y0034000D01*
X0136500Y0019000D01*
X0134000Y0016500D01*
X0129000Y0016500D01*
X0126500Y0019000D01*
X0126500Y0034000D01*
X0129000Y0036500D01*
X0134000Y0036500D01*
X0136500Y0034000D01*
X0126500Y0034000D02*
X0124000Y0036500D01*
X0119000Y0036500D01*
X0116500Y0034000D01*
X0116500Y0019000D01*
X0114000Y0016500D01*
X0109000Y0016500D01*
X0106500Y0019000D01*
X0106500Y0034000D01*
X0109000Y0036500D01*
X0114000Y0036500D01*
X0116500Y0034000D01*
X0106500Y0034000D02*
X0104000Y0036500D01*
X0099000Y0036500D01*
X0096500Y0034000D01*
X0096500Y0019000D01*
X0094000Y0016500D01*
X0089000Y0016500D01*
X0086500Y0019000D01*
X0086500Y0034000D01*
X0089000Y0036500D01*
X0094000Y0036500D01*
X0096500Y0034000D01*
X0086500Y0034000D02*
X0084000Y0036500D01*
X0079000Y0036500D01*
X0076500Y0034000D01*
X0076500Y0019000D01*
X0079000Y0016500D01*
X0084000Y0016500D01*
X0086500Y0019000D01*
X0076500Y0019000D02*
X0074000Y0016500D01*
X0069000Y0016500D01*
X0066500Y0019000D01*
X0066500Y0034000D01*
X0069000Y0036500D01*
X0074000Y0036500D01*
X0076500Y0034000D01*
X0066500Y0034000D02*
X0064000Y0036500D01*
X0059000Y0036500D01*
X0056500Y0034000D01*
X0056500Y0019000D01*
X0059000Y0016500D01*
X0064000Y0016500D01*
X0066500Y0019000D01*
X0056500Y0019000D02*
X0054000Y0016500D01*
X0049000Y0016500D01*
X0046500Y0019000D01*
X0046500Y0034000D01*
X0049000Y0036500D01*
X0054000Y0036500D01*
X0056500Y0034000D01*
X0046500Y0034000D02*
X0044000Y0036500D01*
X0039000Y0036500D01*
X0036500Y0034000D01*
X0036500Y0019000D01*
X0039000Y0016500D01*
X0044000Y0016500D01*
X0046500Y0019000D01*
X0036500Y0019000D02*
X0034000Y0016500D01*
X0029000Y0016500D01*
X0026500Y0019000D01*
X0026500Y0034000D01*
X0029000Y0036500D01*
X0034000Y0036500D01*
X0036500Y0034000D01*
X0026500Y0034000D02*
X0024000Y0036500D01*
X0019000Y0036500D01*
X0016500Y0034000D01*
X0016500Y0019000D01*
X0019000Y0016500D01*
X0024000Y0016500D01*
X0026500Y0019000D01*
X0096500Y0019000D02*
X0099000Y0016500D01*
X0104000Y0016500D01*
X0106500Y0019000D01*
X0116500Y0019000D02*
X0119000Y0016500D01*
X0124000Y0016500D01*
X0126500Y0019000D01*
X0136500Y0019000D02*
X0139000Y0016500D01*
X0144000Y0016500D01*
X0146500Y0019000D01*
X0156500Y0019000D02*
X0159000Y0016500D01*
X0164000Y0016500D01*
X0166500Y0019000D01*
X0176500Y0019000D02*
X0179000Y0016500D01*
X0184000Y0016500D01*
X0186500Y0019000D01*
X0196500Y0019000D02*
X0199000Y0016500D01*
X0204000Y0016500D01*
X0206500Y0019000D01*
M02*
