%
M48
M72
T01C0.04000
T02C0.12598
%
T01
X21500Y21500
X31500Y21500
X41500Y21500
X51500Y21500
X61500Y21500
X71500Y21500
X81500Y21500
X91500Y21500
X101500Y21500
X111500Y21500
X121500Y21500
X131500Y21500
X141500Y21500
X151500Y21500
X161500Y21500
X171500Y21500
X181500Y21500
X191500Y21500
X201500Y21500
X211500Y21500
X221500Y21500
X231500Y21500
X241500Y21500
X251500Y21500
X261500Y21500
X271500Y21500
X281500Y21500
X291500Y21500
X301500Y21500
X311500Y21500
X321500Y21500
X331500Y21500
X331500Y31500
X321500Y31500
X311500Y31500
X301500Y31500
X291500Y31500
X281500Y31500
X271500Y31500
X261500Y31500
X251500Y31500
X241500Y31500
X231500Y31500
X221500Y31500
X211500Y31500
X201500Y31500
X191500Y31500
X181500Y31500
X171500Y31500
X161500Y31500
X151500Y31500
X141500Y31500
X131500Y31500
X121500Y31500
X111500Y31500
X101500Y31500
X91500Y31500
X81500Y31500
X71500Y31500
X61500Y31500
X51500Y31500
X41500Y31500
X31500Y31500
X21500Y31500
T02
X389500Y28500
M30
