G75*
%MOIN*%
%OFA0B0*%
%FSLAX25Y25*%
%IPPOS*%
%LPD*%
%AMOC8*
5,1,8,0,0,1.08239X$1,22.5*
%
%ADD10C,0.00000*%
%ADD11OC8,0.06000*%
%ADD12R,0.10000X0.05000*%
%ADD13C,0.00800*%
%ADD14C,0.01000*%
D10*
X0009000Y0009000D02*
X0009000Y0053961D01*
X0115201Y0053961D01*
X0115201Y0009000D01*
X0009000Y0009000D01*
X0015201Y0031500D02*
X0015203Y0031658D01*
X0015209Y0031816D01*
X0015219Y0031974D01*
X0015233Y0032132D01*
X0015251Y0032289D01*
X0015272Y0032446D01*
X0015298Y0032602D01*
X0015328Y0032758D01*
X0015361Y0032913D01*
X0015399Y0033066D01*
X0015440Y0033219D01*
X0015485Y0033371D01*
X0015534Y0033522D01*
X0015587Y0033671D01*
X0015643Y0033819D01*
X0015703Y0033965D01*
X0015767Y0034110D01*
X0015835Y0034253D01*
X0015906Y0034395D01*
X0015980Y0034535D01*
X0016058Y0034672D01*
X0016140Y0034808D01*
X0016224Y0034942D01*
X0016313Y0035073D01*
X0016404Y0035202D01*
X0016499Y0035329D01*
X0016596Y0035454D01*
X0016697Y0035576D01*
X0016801Y0035695D01*
X0016908Y0035812D01*
X0017018Y0035926D01*
X0017131Y0036037D01*
X0017246Y0036146D01*
X0017364Y0036251D01*
X0017485Y0036353D01*
X0017608Y0036453D01*
X0017734Y0036549D01*
X0017862Y0036642D01*
X0017992Y0036732D01*
X0018125Y0036818D01*
X0018260Y0036902D01*
X0018396Y0036981D01*
X0018535Y0037058D01*
X0018676Y0037130D01*
X0018818Y0037200D01*
X0018962Y0037265D01*
X0019108Y0037327D01*
X0019255Y0037385D01*
X0019404Y0037440D01*
X0019554Y0037491D01*
X0019705Y0037538D01*
X0019857Y0037581D01*
X0020010Y0037620D01*
X0020165Y0037656D01*
X0020320Y0037687D01*
X0020476Y0037715D01*
X0020632Y0037739D01*
X0020789Y0037759D01*
X0020947Y0037775D01*
X0021104Y0037787D01*
X0021263Y0037795D01*
X0021421Y0037799D01*
X0021579Y0037799D01*
X0021737Y0037795D01*
X0021896Y0037787D01*
X0022053Y0037775D01*
X0022211Y0037759D01*
X0022368Y0037739D01*
X0022524Y0037715D01*
X0022680Y0037687D01*
X0022835Y0037656D01*
X0022990Y0037620D01*
X0023143Y0037581D01*
X0023295Y0037538D01*
X0023446Y0037491D01*
X0023596Y0037440D01*
X0023745Y0037385D01*
X0023892Y0037327D01*
X0024038Y0037265D01*
X0024182Y0037200D01*
X0024324Y0037130D01*
X0024465Y0037058D01*
X0024604Y0036981D01*
X0024740Y0036902D01*
X0024875Y0036818D01*
X0025008Y0036732D01*
X0025138Y0036642D01*
X0025266Y0036549D01*
X0025392Y0036453D01*
X0025515Y0036353D01*
X0025636Y0036251D01*
X0025754Y0036146D01*
X0025869Y0036037D01*
X0025982Y0035926D01*
X0026092Y0035812D01*
X0026199Y0035695D01*
X0026303Y0035576D01*
X0026404Y0035454D01*
X0026501Y0035329D01*
X0026596Y0035202D01*
X0026687Y0035073D01*
X0026776Y0034942D01*
X0026860Y0034808D01*
X0026942Y0034672D01*
X0027020Y0034535D01*
X0027094Y0034395D01*
X0027165Y0034253D01*
X0027233Y0034110D01*
X0027297Y0033965D01*
X0027357Y0033819D01*
X0027413Y0033671D01*
X0027466Y0033522D01*
X0027515Y0033371D01*
X0027560Y0033219D01*
X0027601Y0033066D01*
X0027639Y0032913D01*
X0027672Y0032758D01*
X0027702Y0032602D01*
X0027728Y0032446D01*
X0027749Y0032289D01*
X0027767Y0032132D01*
X0027781Y0031974D01*
X0027791Y0031816D01*
X0027797Y0031658D01*
X0027799Y0031500D01*
X0027797Y0031342D01*
X0027791Y0031184D01*
X0027781Y0031026D01*
X0027767Y0030868D01*
X0027749Y0030711D01*
X0027728Y0030554D01*
X0027702Y0030398D01*
X0027672Y0030242D01*
X0027639Y0030087D01*
X0027601Y0029934D01*
X0027560Y0029781D01*
X0027515Y0029629D01*
X0027466Y0029478D01*
X0027413Y0029329D01*
X0027357Y0029181D01*
X0027297Y0029035D01*
X0027233Y0028890D01*
X0027165Y0028747D01*
X0027094Y0028605D01*
X0027020Y0028465D01*
X0026942Y0028328D01*
X0026860Y0028192D01*
X0026776Y0028058D01*
X0026687Y0027927D01*
X0026596Y0027798D01*
X0026501Y0027671D01*
X0026404Y0027546D01*
X0026303Y0027424D01*
X0026199Y0027305D01*
X0026092Y0027188D01*
X0025982Y0027074D01*
X0025869Y0026963D01*
X0025754Y0026854D01*
X0025636Y0026749D01*
X0025515Y0026647D01*
X0025392Y0026547D01*
X0025266Y0026451D01*
X0025138Y0026358D01*
X0025008Y0026268D01*
X0024875Y0026182D01*
X0024740Y0026098D01*
X0024604Y0026019D01*
X0024465Y0025942D01*
X0024324Y0025870D01*
X0024182Y0025800D01*
X0024038Y0025735D01*
X0023892Y0025673D01*
X0023745Y0025615D01*
X0023596Y0025560D01*
X0023446Y0025509D01*
X0023295Y0025462D01*
X0023143Y0025419D01*
X0022990Y0025380D01*
X0022835Y0025344D01*
X0022680Y0025313D01*
X0022524Y0025285D01*
X0022368Y0025261D01*
X0022211Y0025241D01*
X0022053Y0025225D01*
X0021896Y0025213D01*
X0021737Y0025205D01*
X0021579Y0025201D01*
X0021421Y0025201D01*
X0021263Y0025205D01*
X0021104Y0025213D01*
X0020947Y0025225D01*
X0020789Y0025241D01*
X0020632Y0025261D01*
X0020476Y0025285D01*
X0020320Y0025313D01*
X0020165Y0025344D01*
X0020010Y0025380D01*
X0019857Y0025419D01*
X0019705Y0025462D01*
X0019554Y0025509D01*
X0019404Y0025560D01*
X0019255Y0025615D01*
X0019108Y0025673D01*
X0018962Y0025735D01*
X0018818Y0025800D01*
X0018676Y0025870D01*
X0018535Y0025942D01*
X0018396Y0026019D01*
X0018260Y0026098D01*
X0018125Y0026182D01*
X0017992Y0026268D01*
X0017862Y0026358D01*
X0017734Y0026451D01*
X0017608Y0026547D01*
X0017485Y0026647D01*
X0017364Y0026749D01*
X0017246Y0026854D01*
X0017131Y0026963D01*
X0017018Y0027074D01*
X0016908Y0027188D01*
X0016801Y0027305D01*
X0016697Y0027424D01*
X0016596Y0027546D01*
X0016499Y0027671D01*
X0016404Y0027798D01*
X0016313Y0027927D01*
X0016224Y0028058D01*
X0016140Y0028192D01*
X0016058Y0028328D01*
X0015980Y0028465D01*
X0015906Y0028605D01*
X0015835Y0028747D01*
X0015767Y0028890D01*
X0015703Y0029035D01*
X0015643Y0029181D01*
X0015587Y0029329D01*
X0015534Y0029478D01*
X0015485Y0029629D01*
X0015440Y0029781D01*
X0015399Y0029934D01*
X0015361Y0030087D01*
X0015328Y0030242D01*
X0015298Y0030398D01*
X0015272Y0030554D01*
X0015251Y0030711D01*
X0015233Y0030868D01*
X0015219Y0031026D01*
X0015209Y0031184D01*
X0015203Y0031342D01*
X0015201Y0031500D01*
D11*
X0076500Y0031500D03*
X0076500Y0041500D03*
X0086500Y0041500D03*
X0096500Y0041500D03*
X0106500Y0041500D03*
X0076500Y0021500D03*
D12*
X0051500Y0024000D03*
X0051500Y0016500D03*
X0051500Y0031500D03*
X0051500Y0039000D03*
X0051500Y0046500D03*
D13*
X0071500Y0046500D01*
X0076500Y0041500D01*
X0071500Y0036500D02*
X0069000Y0039000D01*
X0051500Y0039000D01*
X0051500Y0031500D02*
X0066500Y0031500D01*
X0071500Y0026500D01*
X0081500Y0026500D01*
X0096500Y0041500D01*
X0086500Y0041500D02*
X0081500Y0036500D01*
X0071500Y0036500D01*
X0064000Y0024000D02*
X0051500Y0024000D01*
X0064000Y0024000D02*
X0071500Y0016500D01*
X0081500Y0016500D01*
X0106500Y0041500D01*
D14*
X0110600Y0041455D02*
X0112701Y0041455D01*
X0112701Y0040457D02*
X0110600Y0040457D01*
X0110600Y0039802D02*
X0110600Y0043198D01*
X0108198Y0045600D01*
X0104802Y0045600D01*
X0102400Y0043198D01*
X0102400Y0039802D01*
X0102540Y0039662D01*
X0080879Y0018000D01*
X0079364Y0018000D01*
X0081000Y0019636D01*
X0081000Y0021000D01*
X0077000Y0021000D01*
X0077000Y0022000D01*
X0081000Y0022000D01*
X0081000Y0023364D01*
X0079364Y0025000D01*
X0082121Y0025000D01*
X0094662Y0037540D01*
X0094802Y0037400D01*
X0098198Y0037400D01*
X0100600Y0039802D01*
X0100600Y0043198D01*
X0098198Y0045600D01*
X0094802Y0045600D01*
X0092400Y0043198D01*
X0092400Y0039802D01*
X0092540Y0039662D01*
X0080879Y0028000D01*
X0078798Y0028000D01*
X0080600Y0029802D01*
X0080600Y0033198D01*
X0078798Y0035000D01*
X0082121Y0035000D01*
X0084662Y0037540D01*
X0084802Y0037400D01*
X0088198Y0037400D01*
X0090600Y0039802D01*
X0090600Y0043198D01*
X0088198Y0045600D01*
X0084802Y0045600D01*
X0082400Y0043198D01*
X0082400Y0039802D01*
X0082540Y0039662D01*
X0080879Y0038000D01*
X0078798Y0038000D01*
X0080600Y0039802D01*
X0080600Y0043198D01*
X0078198Y0045600D01*
X0074802Y0045600D01*
X0074662Y0045460D01*
X0073000Y0047121D01*
X0073000Y0047121D01*
X0072121Y0048000D01*
X0057600Y0048000D01*
X0057600Y0049456D01*
X0056956Y0050100D01*
X0046044Y0050100D01*
X0045400Y0049456D01*
X0045400Y0043544D01*
X0046044Y0042900D01*
X0056956Y0042900D01*
X0057600Y0043544D01*
X0057600Y0045000D01*
X0070879Y0045000D01*
X0072540Y0043338D01*
X0072400Y0043198D01*
X0072400Y0039802D01*
X0074202Y0038000D01*
X0072121Y0038000D01*
X0069621Y0040500D01*
X0057600Y0040500D01*
X0057600Y0041956D01*
X0056956Y0042600D01*
X0046044Y0042600D01*
X0045400Y0041956D01*
X0045400Y0036044D01*
X0046044Y0035400D01*
X0056956Y0035400D01*
X0057600Y0036044D01*
X0057600Y0037500D01*
X0068379Y0037500D01*
X0070000Y0035879D01*
X0070879Y0035000D01*
X0074202Y0035000D01*
X0072400Y0033198D01*
X0072400Y0029802D01*
X0074202Y0028000D01*
X0072121Y0028000D01*
X0067121Y0033000D01*
X0057600Y0033000D01*
X0057600Y0034456D01*
X0056956Y0035100D01*
X0046044Y0035100D01*
X0045400Y0034456D01*
X0045400Y0028544D01*
X0046044Y0027900D01*
X0056956Y0027900D01*
X0057600Y0028544D01*
X0057600Y0030000D01*
X0065879Y0030000D01*
X0070000Y0025879D01*
X0070879Y0025000D01*
X0073636Y0025000D01*
X0072000Y0023364D01*
X0072000Y0022000D01*
X0076000Y0022000D01*
X0076000Y0021000D01*
X0072000Y0021000D01*
X0072000Y0019636D01*
X0073636Y0018000D01*
X0072121Y0018000D01*
X0064621Y0025500D01*
X0057600Y0025500D01*
X0057600Y0026956D01*
X0056956Y0027600D01*
X0046044Y0027600D01*
X0045400Y0026956D01*
X0045400Y0021044D01*
X0046020Y0020424D01*
X0045921Y0020398D01*
X0045579Y0020200D01*
X0045300Y0019921D01*
X0045102Y0019579D01*
X0045000Y0019197D01*
X0045000Y0017000D01*
X0051000Y0017000D01*
X0051000Y0016000D01*
X0052000Y0016000D01*
X0052000Y0017000D01*
X0058000Y0017000D01*
X0058000Y0019197D01*
X0057898Y0019579D01*
X0057700Y0019921D01*
X0057421Y0020200D01*
X0057079Y0020398D01*
X0056980Y0020424D01*
X0057600Y0021044D01*
X0057600Y0022500D01*
X0063379Y0022500D01*
X0070000Y0015879D01*
X0070879Y0015000D01*
X0082121Y0015000D01*
X0104662Y0037540D01*
X0104802Y0037400D01*
X0108198Y0037400D01*
X0110600Y0039802D01*
X0110257Y0039458D02*
X0112701Y0039458D01*
X0112701Y0038460D02*
X0109258Y0038460D01*
X0108260Y0037461D02*
X0112701Y0037461D01*
X0112701Y0036463D02*
X0103584Y0036463D01*
X0102586Y0035464D02*
X0112701Y0035464D01*
X0112701Y0034466D02*
X0101587Y0034466D01*
X0100589Y0033467D02*
X0112701Y0033467D01*
X0112701Y0032469D02*
X0099590Y0032469D01*
X0098592Y0031470D02*
X0112701Y0031470D01*
X0112701Y0030472D02*
X0097593Y0030472D01*
X0096595Y0029473D02*
X0112701Y0029473D01*
X0112701Y0028475D02*
X0095596Y0028475D01*
X0094598Y0027476D02*
X0112701Y0027476D01*
X0112701Y0026478D02*
X0093599Y0026478D01*
X0092600Y0025479D02*
X0112701Y0025479D01*
X0112701Y0024481D02*
X0091602Y0024481D01*
X0090603Y0023482D02*
X0112701Y0023482D01*
X0112701Y0022484D02*
X0089605Y0022484D01*
X0088606Y0021485D02*
X0112701Y0021485D01*
X0112701Y0020487D02*
X0087608Y0020487D01*
X0086609Y0019488D02*
X0112701Y0019488D01*
X0112701Y0018490D02*
X0085611Y0018490D01*
X0084612Y0017491D02*
X0112701Y0017491D01*
X0112701Y0016493D02*
X0083614Y0016493D01*
X0082615Y0015494D02*
X0112701Y0015494D01*
X0112701Y0014496D02*
X0058000Y0014496D01*
X0058000Y0015494D02*
X0070385Y0015494D01*
X0069386Y0016493D02*
X0052000Y0016493D01*
X0052000Y0016000D02*
X0058000Y0016000D01*
X0058000Y0013803D01*
X0057898Y0013421D01*
X0057700Y0013079D01*
X0057421Y0012800D01*
X0057079Y0012602D01*
X0056697Y0012500D01*
X0052000Y0012500D01*
X0052000Y0016000D01*
X0052000Y0015494D02*
X0051000Y0015494D01*
X0051000Y0016000D02*
X0051000Y0012500D01*
X0046303Y0012500D01*
X0045921Y0012602D01*
X0045579Y0012800D01*
X0045300Y0013079D01*
X0045102Y0013421D01*
X0045000Y0013803D01*
X0045000Y0016000D01*
X0051000Y0016000D01*
X0051000Y0016493D02*
X0011500Y0016493D01*
X0011500Y0017491D02*
X0045000Y0017491D01*
X0045000Y0018490D02*
X0011500Y0018490D01*
X0011500Y0019488D02*
X0045078Y0019488D01*
X0045958Y0020487D02*
X0011500Y0020487D01*
X0011500Y0021485D02*
X0045400Y0021485D01*
X0045400Y0022484D02*
X0011500Y0022484D01*
X0011500Y0023482D02*
X0017863Y0023482D01*
X0016516Y0024040D02*
X0019750Y0022701D01*
X0023250Y0022701D01*
X0026484Y0024040D01*
X0028960Y0026516D01*
X0030299Y0029750D01*
X0030299Y0033250D01*
X0028960Y0036484D01*
X0026484Y0038960D01*
X0023250Y0040299D01*
X0019750Y0040299D01*
X0016516Y0038960D01*
X0014040Y0036484D01*
X0012701Y0033250D01*
X0012701Y0029750D01*
X0014040Y0026516D01*
X0016516Y0024040D01*
X0016075Y0024481D02*
X0011500Y0024481D01*
X0011500Y0025479D02*
X0015077Y0025479D01*
X0014078Y0026478D02*
X0011500Y0026478D01*
X0011500Y0027476D02*
X0013643Y0027476D01*
X0013229Y0028475D02*
X0011500Y0028475D01*
X0011500Y0029473D02*
X0012815Y0029473D01*
X0012701Y0030472D02*
X0011500Y0030472D01*
X0011500Y0031470D02*
X0012701Y0031470D01*
X0012701Y0032469D02*
X0011500Y0032469D01*
X0011500Y0033467D02*
X0012791Y0033467D01*
X0013204Y0034466D02*
X0011500Y0034466D01*
X0011500Y0035464D02*
X0013618Y0035464D01*
X0014031Y0036463D02*
X0011500Y0036463D01*
X0011500Y0037461D02*
X0015017Y0037461D01*
X0016016Y0038460D02*
X0011500Y0038460D01*
X0011500Y0039458D02*
X0017720Y0039458D01*
X0011500Y0040457D02*
X0045400Y0040457D01*
X0045400Y0041455D02*
X0011500Y0041455D01*
X0011500Y0042454D02*
X0045898Y0042454D01*
X0045492Y0043452D02*
X0011500Y0043452D01*
X0011500Y0044451D02*
X0045400Y0044451D01*
X0045400Y0045449D02*
X0011500Y0045449D01*
X0011500Y0046448D02*
X0045400Y0046448D01*
X0045400Y0047446D02*
X0011500Y0047446D01*
X0011500Y0048445D02*
X0045400Y0048445D01*
X0045400Y0049443D02*
X0011500Y0049443D01*
X0011500Y0050442D02*
X0112701Y0050442D01*
X0112701Y0051440D02*
X0011500Y0051440D01*
X0011500Y0051461D02*
X0112701Y0051461D01*
X0112701Y0011500D01*
X0011500Y0011500D01*
X0011500Y0051461D01*
X0025280Y0039458D02*
X0045400Y0039458D01*
X0045400Y0038460D02*
X0026984Y0038460D01*
X0027983Y0037461D02*
X0045400Y0037461D01*
X0045400Y0036463D02*
X0028969Y0036463D01*
X0029382Y0035464D02*
X0045980Y0035464D01*
X0045410Y0034466D02*
X0029796Y0034466D01*
X0030209Y0033467D02*
X0045400Y0033467D01*
X0045400Y0032469D02*
X0030299Y0032469D01*
X0030299Y0031470D02*
X0045400Y0031470D01*
X0045400Y0030472D02*
X0030299Y0030472D01*
X0030185Y0029473D02*
X0045400Y0029473D01*
X0045470Y0028475D02*
X0029771Y0028475D01*
X0029357Y0027476D02*
X0045921Y0027476D01*
X0045400Y0026478D02*
X0028922Y0026478D01*
X0027923Y0025479D02*
X0045400Y0025479D01*
X0045400Y0024481D02*
X0026925Y0024481D01*
X0025137Y0023482D02*
X0045400Y0023482D01*
X0057042Y0020487D02*
X0065392Y0020487D01*
X0064394Y0021485D02*
X0057600Y0021485D01*
X0057600Y0022484D02*
X0063395Y0022484D01*
X0065641Y0024481D02*
X0073117Y0024481D01*
X0072118Y0023482D02*
X0066639Y0023482D01*
X0067638Y0022484D02*
X0072000Y0022484D01*
X0072000Y0020487D02*
X0069635Y0020487D01*
X0068636Y0021485D02*
X0076000Y0021485D01*
X0077000Y0021485D02*
X0084364Y0021485D01*
X0085362Y0022484D02*
X0081000Y0022484D01*
X0080882Y0023482D02*
X0086361Y0023482D01*
X0087359Y0024481D02*
X0079883Y0024481D01*
X0082600Y0025479D02*
X0088358Y0025479D01*
X0089356Y0026478D02*
X0083599Y0026478D01*
X0084598Y0027476D02*
X0090355Y0027476D01*
X0091353Y0028475D02*
X0085596Y0028475D01*
X0086595Y0029473D02*
X0092352Y0029473D01*
X0093350Y0030472D02*
X0087593Y0030472D01*
X0088592Y0031470D02*
X0094349Y0031470D01*
X0095347Y0032469D02*
X0089590Y0032469D01*
X0090589Y0033467D02*
X0096346Y0033467D01*
X0097344Y0034466D02*
X0091587Y0034466D01*
X0092586Y0035464D02*
X0098343Y0035464D01*
X0099341Y0036463D02*
X0093584Y0036463D01*
X0094583Y0037461D02*
X0094740Y0037461D01*
X0098260Y0037461D02*
X0100340Y0037461D01*
X0101338Y0038460D02*
X0099258Y0038460D01*
X0100257Y0039458D02*
X0102337Y0039458D01*
X0102400Y0040457D02*
X0100600Y0040457D01*
X0100600Y0041455D02*
X0102400Y0041455D01*
X0102400Y0042454D02*
X0100600Y0042454D01*
X0100346Y0043452D02*
X0102654Y0043452D01*
X0103653Y0044451D02*
X0099347Y0044451D01*
X0098349Y0045449D02*
X0104651Y0045449D01*
X0108349Y0045449D02*
X0112701Y0045449D01*
X0112701Y0046448D02*
X0073673Y0046448D01*
X0072675Y0047446D02*
X0112701Y0047446D01*
X0112701Y0048445D02*
X0057600Y0048445D01*
X0057600Y0049443D02*
X0112701Y0049443D01*
X0112701Y0044451D02*
X0109347Y0044451D01*
X0110346Y0043452D02*
X0112701Y0043452D01*
X0112701Y0042454D02*
X0110600Y0042454D01*
X0104740Y0037461D02*
X0104583Y0037461D01*
X0092337Y0039458D02*
X0090257Y0039458D01*
X0089258Y0038460D02*
X0091338Y0038460D01*
X0090340Y0037461D02*
X0088260Y0037461D01*
X0089341Y0036463D02*
X0083584Y0036463D01*
X0082586Y0035464D02*
X0088343Y0035464D01*
X0087344Y0034466D02*
X0079332Y0034466D01*
X0080331Y0033467D02*
X0086346Y0033467D01*
X0085347Y0032469D02*
X0080600Y0032469D01*
X0080600Y0031470D02*
X0084349Y0031470D01*
X0083350Y0030472D02*
X0080600Y0030472D01*
X0080271Y0029473D02*
X0082352Y0029473D01*
X0081353Y0028475D02*
X0079273Y0028475D01*
X0073727Y0028475D02*
X0071647Y0028475D01*
X0070648Y0029473D02*
X0072729Y0029473D01*
X0072400Y0030472D02*
X0069650Y0030472D01*
X0068651Y0031470D02*
X0072400Y0031470D01*
X0072400Y0032469D02*
X0067653Y0032469D01*
X0072669Y0033467D02*
X0057600Y0033467D01*
X0057590Y0034466D02*
X0073668Y0034466D01*
X0070414Y0035464D02*
X0057020Y0035464D01*
X0057600Y0036463D02*
X0069416Y0036463D01*
X0068417Y0037461D02*
X0057600Y0037461D01*
X0057600Y0041455D02*
X0072400Y0041455D01*
X0072400Y0040457D02*
X0069664Y0040457D01*
X0070663Y0039458D02*
X0072743Y0039458D01*
X0073742Y0038460D02*
X0071662Y0038460D01*
X0072400Y0042454D02*
X0057102Y0042454D01*
X0057508Y0043452D02*
X0072426Y0043452D01*
X0071428Y0044451D02*
X0057600Y0044451D01*
X0078349Y0045449D02*
X0084651Y0045449D01*
X0083653Y0044451D02*
X0079347Y0044451D01*
X0080346Y0043452D02*
X0082654Y0043452D01*
X0082400Y0042454D02*
X0080600Y0042454D01*
X0080600Y0041455D02*
X0082400Y0041455D01*
X0082400Y0040457D02*
X0080600Y0040457D01*
X0080257Y0039458D02*
X0082337Y0039458D01*
X0081338Y0038460D02*
X0079258Y0038460D01*
X0084583Y0037461D02*
X0084740Y0037461D01*
X0090600Y0040457D02*
X0092400Y0040457D01*
X0092400Y0041455D02*
X0090600Y0041455D01*
X0090600Y0042454D02*
X0092400Y0042454D01*
X0092654Y0043452D02*
X0090346Y0043452D01*
X0089347Y0044451D02*
X0093653Y0044451D01*
X0094651Y0045449D02*
X0088349Y0045449D01*
X0066405Y0029473D02*
X0057600Y0029473D01*
X0057530Y0028475D02*
X0067404Y0028475D01*
X0068402Y0027476D02*
X0057079Y0027476D01*
X0057600Y0026478D02*
X0069401Y0026478D01*
X0070400Y0025479D02*
X0064642Y0025479D01*
X0066391Y0019488D02*
X0057922Y0019488D01*
X0058000Y0018490D02*
X0067389Y0018490D01*
X0068388Y0017491D02*
X0058000Y0017491D01*
X0052000Y0014496D02*
X0051000Y0014496D01*
X0051000Y0013497D02*
X0052000Y0013497D01*
X0057918Y0013497D02*
X0112701Y0013497D01*
X0112701Y0012499D02*
X0011500Y0012499D01*
X0011500Y0011500D02*
X0112701Y0011500D01*
X0083365Y0020487D02*
X0081000Y0020487D01*
X0080852Y0019488D02*
X0082367Y0019488D01*
X0081368Y0018490D02*
X0079854Y0018490D01*
X0073146Y0018490D02*
X0071632Y0018490D01*
X0072148Y0019488D02*
X0070633Y0019488D01*
X0045000Y0015494D02*
X0011500Y0015494D01*
X0011500Y0014496D02*
X0045000Y0014496D01*
X0045082Y0013497D02*
X0011500Y0013497D01*
M02*
