G75*
%MOIN*%
%OFA0B0*%
%FSLAX25Y25*%
%IPPOS*%
%LPD*%
%AMOC8*
5,1,8,0,0,1.08239X$1,22.5*
%
%ADD10C,0.00000*%
%ADD11C,0.00300*%
D10*
X0009000Y0009000D02*
X0009000Y0053961D01*
X0115201Y0053961D01*
X0115201Y0009000D01*
X0009000Y0009000D01*
X0015201Y0031500D02*
X0015203Y0031658D01*
X0015209Y0031816D01*
X0015219Y0031974D01*
X0015233Y0032132D01*
X0015251Y0032289D01*
X0015272Y0032446D01*
X0015298Y0032602D01*
X0015328Y0032758D01*
X0015361Y0032913D01*
X0015399Y0033066D01*
X0015440Y0033219D01*
X0015485Y0033371D01*
X0015534Y0033522D01*
X0015587Y0033671D01*
X0015643Y0033819D01*
X0015703Y0033965D01*
X0015767Y0034110D01*
X0015835Y0034253D01*
X0015906Y0034395D01*
X0015980Y0034535D01*
X0016058Y0034672D01*
X0016140Y0034808D01*
X0016224Y0034942D01*
X0016313Y0035073D01*
X0016404Y0035202D01*
X0016499Y0035329D01*
X0016596Y0035454D01*
X0016697Y0035576D01*
X0016801Y0035695D01*
X0016908Y0035812D01*
X0017018Y0035926D01*
X0017131Y0036037D01*
X0017246Y0036146D01*
X0017364Y0036251D01*
X0017485Y0036353D01*
X0017608Y0036453D01*
X0017734Y0036549D01*
X0017862Y0036642D01*
X0017992Y0036732D01*
X0018125Y0036818D01*
X0018260Y0036902D01*
X0018396Y0036981D01*
X0018535Y0037058D01*
X0018676Y0037130D01*
X0018818Y0037200D01*
X0018962Y0037265D01*
X0019108Y0037327D01*
X0019255Y0037385D01*
X0019404Y0037440D01*
X0019554Y0037491D01*
X0019705Y0037538D01*
X0019857Y0037581D01*
X0020010Y0037620D01*
X0020165Y0037656D01*
X0020320Y0037687D01*
X0020476Y0037715D01*
X0020632Y0037739D01*
X0020789Y0037759D01*
X0020947Y0037775D01*
X0021104Y0037787D01*
X0021263Y0037795D01*
X0021421Y0037799D01*
X0021579Y0037799D01*
X0021737Y0037795D01*
X0021896Y0037787D01*
X0022053Y0037775D01*
X0022211Y0037759D01*
X0022368Y0037739D01*
X0022524Y0037715D01*
X0022680Y0037687D01*
X0022835Y0037656D01*
X0022990Y0037620D01*
X0023143Y0037581D01*
X0023295Y0037538D01*
X0023446Y0037491D01*
X0023596Y0037440D01*
X0023745Y0037385D01*
X0023892Y0037327D01*
X0024038Y0037265D01*
X0024182Y0037200D01*
X0024324Y0037130D01*
X0024465Y0037058D01*
X0024604Y0036981D01*
X0024740Y0036902D01*
X0024875Y0036818D01*
X0025008Y0036732D01*
X0025138Y0036642D01*
X0025266Y0036549D01*
X0025392Y0036453D01*
X0025515Y0036353D01*
X0025636Y0036251D01*
X0025754Y0036146D01*
X0025869Y0036037D01*
X0025982Y0035926D01*
X0026092Y0035812D01*
X0026199Y0035695D01*
X0026303Y0035576D01*
X0026404Y0035454D01*
X0026501Y0035329D01*
X0026596Y0035202D01*
X0026687Y0035073D01*
X0026776Y0034942D01*
X0026860Y0034808D01*
X0026942Y0034672D01*
X0027020Y0034535D01*
X0027094Y0034395D01*
X0027165Y0034253D01*
X0027233Y0034110D01*
X0027297Y0033965D01*
X0027357Y0033819D01*
X0027413Y0033671D01*
X0027466Y0033522D01*
X0027515Y0033371D01*
X0027560Y0033219D01*
X0027601Y0033066D01*
X0027639Y0032913D01*
X0027672Y0032758D01*
X0027702Y0032602D01*
X0027728Y0032446D01*
X0027749Y0032289D01*
X0027767Y0032132D01*
X0027781Y0031974D01*
X0027791Y0031816D01*
X0027797Y0031658D01*
X0027799Y0031500D01*
X0027797Y0031342D01*
X0027791Y0031184D01*
X0027781Y0031026D01*
X0027767Y0030868D01*
X0027749Y0030711D01*
X0027728Y0030554D01*
X0027702Y0030398D01*
X0027672Y0030242D01*
X0027639Y0030087D01*
X0027601Y0029934D01*
X0027560Y0029781D01*
X0027515Y0029629D01*
X0027466Y0029478D01*
X0027413Y0029329D01*
X0027357Y0029181D01*
X0027297Y0029035D01*
X0027233Y0028890D01*
X0027165Y0028747D01*
X0027094Y0028605D01*
X0027020Y0028465D01*
X0026942Y0028328D01*
X0026860Y0028192D01*
X0026776Y0028058D01*
X0026687Y0027927D01*
X0026596Y0027798D01*
X0026501Y0027671D01*
X0026404Y0027546D01*
X0026303Y0027424D01*
X0026199Y0027305D01*
X0026092Y0027188D01*
X0025982Y0027074D01*
X0025869Y0026963D01*
X0025754Y0026854D01*
X0025636Y0026749D01*
X0025515Y0026647D01*
X0025392Y0026547D01*
X0025266Y0026451D01*
X0025138Y0026358D01*
X0025008Y0026268D01*
X0024875Y0026182D01*
X0024740Y0026098D01*
X0024604Y0026019D01*
X0024465Y0025942D01*
X0024324Y0025870D01*
X0024182Y0025800D01*
X0024038Y0025735D01*
X0023892Y0025673D01*
X0023745Y0025615D01*
X0023596Y0025560D01*
X0023446Y0025509D01*
X0023295Y0025462D01*
X0023143Y0025419D01*
X0022990Y0025380D01*
X0022835Y0025344D01*
X0022680Y0025313D01*
X0022524Y0025285D01*
X0022368Y0025261D01*
X0022211Y0025241D01*
X0022053Y0025225D01*
X0021896Y0025213D01*
X0021737Y0025205D01*
X0021579Y0025201D01*
X0021421Y0025201D01*
X0021263Y0025205D01*
X0021104Y0025213D01*
X0020947Y0025225D01*
X0020789Y0025241D01*
X0020632Y0025261D01*
X0020476Y0025285D01*
X0020320Y0025313D01*
X0020165Y0025344D01*
X0020010Y0025380D01*
X0019857Y0025419D01*
X0019705Y0025462D01*
X0019554Y0025509D01*
X0019404Y0025560D01*
X0019255Y0025615D01*
X0019108Y0025673D01*
X0018962Y0025735D01*
X0018818Y0025800D01*
X0018676Y0025870D01*
X0018535Y0025942D01*
X0018396Y0026019D01*
X0018260Y0026098D01*
X0018125Y0026182D01*
X0017992Y0026268D01*
X0017862Y0026358D01*
X0017734Y0026451D01*
X0017608Y0026547D01*
X0017485Y0026647D01*
X0017364Y0026749D01*
X0017246Y0026854D01*
X0017131Y0026963D01*
X0017018Y0027074D01*
X0016908Y0027188D01*
X0016801Y0027305D01*
X0016697Y0027424D01*
X0016596Y0027546D01*
X0016499Y0027671D01*
X0016404Y0027798D01*
X0016313Y0027927D01*
X0016224Y0028058D01*
X0016140Y0028192D01*
X0016058Y0028328D01*
X0015980Y0028465D01*
X0015906Y0028605D01*
X0015835Y0028747D01*
X0015767Y0028890D01*
X0015703Y0029035D01*
X0015643Y0029181D01*
X0015587Y0029329D01*
X0015534Y0029478D01*
X0015485Y0029629D01*
X0015440Y0029781D01*
X0015399Y0029934D01*
X0015361Y0030087D01*
X0015328Y0030242D01*
X0015298Y0030398D01*
X0015272Y0030554D01*
X0015251Y0030711D01*
X0015233Y0030868D01*
X0015219Y0031026D01*
X0015209Y0031184D01*
X0015203Y0031342D01*
X0015201Y0031500D01*
D11*
X0048029Y0013585D02*
X0049481Y0013585D01*
X0049964Y0013101D01*
X0049964Y0012134D01*
X0049481Y0011650D01*
X0048029Y0011650D01*
X0048029Y0011166D02*
X0048029Y0013585D01*
X0050968Y0013585D02*
X0051452Y0013585D01*
X0052420Y0012617D01*
X0052420Y0011650D02*
X0052420Y0013585D01*
X0053431Y0013101D02*
X0053915Y0013585D01*
X0054882Y0013585D01*
X0055366Y0013101D01*
X0055366Y0012134D01*
X0054882Y0011650D01*
X0053915Y0011650D01*
X0053431Y0012134D01*
X0053431Y0013101D01*
X0056356Y0012134D02*
X0056356Y0011650D01*
X0056839Y0011650D01*
X0056839Y0012134D01*
X0056356Y0012134D01*
X0057851Y0012134D02*
X0058335Y0011650D01*
X0059786Y0011650D01*
X0060783Y0011650D02*
X0061750Y0011650D01*
X0061267Y0011650D02*
X0061267Y0013585D01*
X0061750Y0013585D01*
X0062755Y0013585D02*
X0063238Y0013585D01*
X0064206Y0012617D01*
X0064206Y0011650D02*
X0064206Y0013585D01*
X0065217Y0013585D02*
X0065217Y0011650D01*
X0066669Y0011650D01*
X0067152Y0012134D01*
X0067152Y0013585D01*
X0068156Y0013585D02*
X0068640Y0013585D01*
X0069608Y0012617D01*
X0069608Y0011650D02*
X0069608Y0013585D01*
X0070605Y0013585D02*
X0071572Y0013585D01*
X0071088Y0014069D02*
X0071088Y0012134D01*
X0070605Y0011650D01*
X0072562Y0011650D02*
X0072562Y0012134D01*
X0073045Y0012134D01*
X0073045Y0011650D01*
X0072562Y0011650D01*
X0074057Y0012134D02*
X0074541Y0012617D01*
X0075508Y0012617D01*
X0075992Y0013101D01*
X0075508Y0013585D01*
X0074057Y0013585D01*
X0074057Y0012134D02*
X0074541Y0011650D01*
X0075992Y0011650D01*
X0076989Y0011650D02*
X0077472Y0012134D01*
X0077472Y0014069D01*
X0076989Y0013585D02*
X0077956Y0013585D01*
X0078968Y0013585D02*
X0080419Y0013585D01*
X0080903Y0013101D01*
X0080903Y0012134D01*
X0080419Y0011650D01*
X0078968Y0011650D01*
X0081914Y0012617D02*
X0083849Y0012617D01*
X0083849Y0012134D02*
X0083849Y0013101D01*
X0083365Y0013585D01*
X0082398Y0013585D01*
X0081914Y0013101D01*
X0081914Y0012617D01*
X0082398Y0011650D02*
X0083365Y0011650D01*
X0083849Y0012134D01*
X0084846Y0011166D02*
X0084846Y0013585D01*
X0086825Y0013101D02*
X0087309Y0013585D01*
X0088276Y0013585D01*
X0088760Y0013101D01*
X0088760Y0012134D01*
X0088276Y0011650D01*
X0087309Y0011650D01*
X0086825Y0012134D01*
X0086825Y0013101D01*
X0084846Y0014552D02*
X0084846Y0015036D01*
X0089764Y0013585D02*
X0090248Y0013585D01*
X0091215Y0012617D01*
X0091215Y0011650D02*
X0091215Y0013585D01*
X0092227Y0013101D02*
X0092227Y0012134D01*
X0092711Y0011650D01*
X0094162Y0011650D01*
X0094162Y0010683D02*
X0094162Y0013585D01*
X0092711Y0013585D01*
X0092227Y0013101D01*
X0095174Y0014552D02*
X0097109Y0011650D01*
X0100055Y0011650D02*
X0098120Y0014552D01*
X0101045Y0013585D02*
X0101045Y0013101D01*
X0101528Y0013101D01*
X0101528Y0013585D01*
X0101045Y0013585D01*
X0101045Y0012134D02*
X0101045Y0011650D01*
X0101528Y0011650D01*
X0101528Y0012134D01*
X0101045Y0012134D01*
X0102540Y0012134D02*
X0103024Y0011650D01*
X0104475Y0011650D01*
X0105472Y0011650D02*
X0105955Y0012134D01*
X0105955Y0014069D01*
X0105472Y0013585D02*
X0106439Y0013585D01*
X0107436Y0013585D02*
X0108403Y0013585D01*
X0107920Y0014069D02*
X0107920Y0012134D01*
X0107436Y0011650D01*
X0109415Y0011650D02*
X0109415Y0013101D01*
X0109899Y0013585D01*
X0110866Y0013585D01*
X0111350Y0013101D01*
X0111350Y0014552D02*
X0111350Y0011650D01*
X0104475Y0010683D02*
X0104475Y0013585D01*
X0103024Y0013585D01*
X0102540Y0013101D01*
X0102540Y0012134D01*
X0085814Y0010683D02*
X0085330Y0010683D01*
X0084846Y0011166D01*
X0061267Y0014552D02*
X0061267Y0015036D01*
X0059786Y0013585D02*
X0058335Y0013585D01*
X0057851Y0013101D01*
X0057851Y0012134D01*
X0059786Y0010683D02*
X0059786Y0013585D01*
X0048997Y0010683D02*
X0048513Y0010683D01*
X0048029Y0011166D01*
M02*
